<svg width="500" height="120" enable-background="new -5 -6 450 94" version="1.1" viewBox="-5 -6 500 120" xmlns="http://www.w3.org/2000/svg"><defs><style type="text/css"><![CDATA[
.fil0 {fill:#444444}
tspan {fill:#111111;font-family:'Century Gothic';}
]]></style></defs><text transform="scale(.97667 1.0239)" x="140.85773" y="34.307678" font-size="50" style="font-feature-settings:normal;font-size:48.835px;font-variant-caps:normal;font-variant-ligatures:normal;font-variant-numeric:normal;stroke-width:.97669">
<tspan x="140.85773" y="34.307678" style="letter-spacing:10px">ΠΕΡΙΦΕΡΕΙΑ</tspan>
</text><text transform="scale(.97667 1.0239)" x="140.85774" y="76.141663" font-size="50" style="font-size:48.835px;letter-spacing:-5px;stroke-width:.97669">
<tspan style="font-size:42.667px;letter-spacing:0px">ΠΕΛΟΠΟΝΝΗΣΟΥ</tspan>
</text><text x="139.41997" y="107.52474" font-size="26.306" letter-spacing="29" style="font-size:26.306px;letter-spacing:29" moz-transform="matrix(1 0 0 1 90.4326 70.8096)">
<tspan style="letter-spacing:5.5px">ΔΗΜΟΤΙΚΕΣ ΕΚΛΟΓΕΣ</tspan>
</text><g transform="matrix(.037795 0 0 .037795 -62.356 -121.86)" style="clip-rule:evenodd;fill-rule:evenodd;image-rendering:optimizeQuality;shape-rendering:geometricPrecision"><g transform="translate(1587.3,3429)"><path class="fil0" d="m1130 1228c32-31 64-64 95-95 58-58 31-30 59-130 43-150 48-131 252-125 65 2 126 3 191 0 47-2 117-3 151-38l191-191c30 16 260 267 300 296-86 105-189 212-193 357-3 113 18 122-67 207-45 46-93 90-138 136-91 93-182 182-275 272-24 23-43 55-75 65-38 13-75-15-70-55 4-35 36-57 60-80 22-21 45-46 67-68 45-46 91-92 136-138 22-23 46-47 70-68 25-22 52-44 54-80 2-40-35-66-73-56-33 9-52 39-74 63-45 46-91 91-137 137-45 46-90 93-136 138-57 56-96 96-84 183 10 70 65 128 134 141 85 17 132-20 189-77 91-91 182-183 275-273 69-67 229-207 254-294 24-85-13-145 32-241 92-196 260-230 161-326l-274-273c-23-24-46-45-68-69-23-26-51-48-88-35-24 8-181 168-211 203-28 31-47 42-89 46-162 15-414-37-496 46-83 83-115 308-122 422z"/><path class="fil0" d="m360 2300 164-1c-12-27-93-84-104-111l934-932c28 17 276 274 305 294l81-81c-17-21-257-254-293-288-32-30-70-84-118-62-21 10-168 162-196 191l-577 577c-64 65-129 129-193 193-26 26-84 71-85 108 0 41 59 80 83 112z"/><path class="fil0" d="m2222 368c5-11 110-116 125-125 10 5 288 285 317 316 33 35 74 70 105 105-8 13-115 120-125 124l-421-421zm689 310v-26c-21-39-32-45-62-75l-346-346c-39-39-100-107-144-131h-25c-44 22-104 93-141 130l-68 68c-25 25-54 46-42 87 6 23 232 240 267 275s253 260 274 268c43 15 64-14 91-41 47-47 179-171 198-209z"/><path class="fil0" d="m89 2344v56h2234c14-24 26-42 8-72-16-26-38-29-66-29-74 0-519-3-549 0h-1192l-164 1c-46-4-111-1-158-1-19 0-57-2-74 3-25 9-27 24-39 41z"/><path class="fil0" d="m1548 2300h167l244-239c42-38 82-79 123-117 24-22 47-42 39-79-4-17-40-56-55-65-25 16-273 275-322 314-14 11-24 15-37 28-30 29-153 143-160 157z"/></g></g></svg>
